<svg width="440" height="158" viewBox="0 0 440 158" fill="none" xmlns="http://www.w3.org/2000/svg">
<g filter="url(#filter0_d_101_1258)">
<g clip-path="url(#clip0_101_1258)">
<path fill-rule="evenodd" clip-rule="evenodd" d="M137.656 79.4999V30.7931H143.984L174.062 69.9905V30.7931H180.078V79.4999H173.75L143.672 39.916V79.4999H137.656ZM229.062 77.5671C225.078 79.036 220.781 79.8091 216.25 79.8091C198.437 79.8091 189.531 71.3821 189.531 54.4507C189.531 38.4471 198.125 30.4066 215.312 30.4066C220.234 30.4066 224.844 31.1024 229.062 32.4167V37.8286C224.844 36.205 220.469 35.4319 216.016 35.4319C202.578 35.4319 195.859 41.7715 195.859 54.2961C195.859 67.8257 202.5 74.5519 215.703 74.5519C217.812 74.5519 220.156 74.2427 222.734 73.7015V57.3886H229.062V77.5671ZM239.219 60.713V30.7931H245.547V60.713C245.547 70.0678 250.234 74.7838 259.687 74.7838C269.062 74.7838 273.828 70.0678 273.828 60.713V30.7931H280.156V60.713C280.156 73.4695 273.359 79.8865 259.687 79.8865C246.016 79.8865 239.219 73.4695 239.219 60.713ZM297.812 30.7931V74.3973H323.594V79.4999H291.484V30.7931H297.812ZM332.734 79.4999H326.094L350.547 24.3762L375 79.4999H367.969L361.641 64.1921H345.391L347.109 59.0894H359.531L350.312 37.0554L332.734 79.4999ZM381.797 79.4999V30.7931H402.812C412.188 30.7931 416.875 34.6588 416.875 42.4673C416.875 48.8069 412.266 53.523 403.125 56.5381L420 79.4999H411.641L396.016 57.6205V53.523C405.391 52.054 410.156 48.4977 410.156 42.7766C410.156 38.2924 407.578 36.0504 402.344 36.0504H388.281V79.4999H381.797Z" fill="#B52E31"/>
<path fill-rule="evenodd" clip-rule="evenodd" d="M20 17.8048L70.3906 0.0229492L122.109 17.4955L113.75 83.4429L70.3906 107.178L27.7344 83.7522L20 17.8048Z" fill="#E23237"/>
<path fill-rule="evenodd" clip-rule="evenodd" d="M122.109 17.4955L70.3906 0.0229492V107.178L113.75 83.4429L122.109 17.4955Z" fill="#B52E31"/>
<path fill-rule="evenodd" clip-rule="evenodd" d="M70.4687 12.5476L39.0625 81.6648L50.7813 81.4329L57.1094 65.8158H85.1562L92.0312 81.5875L103.203 81.8194L70.4687 12.5476ZM70.5469 34.7362L81.1719 56.6929H61.25L70.5469 34.7362Z" fill="white"/>
</g>
</g>
<defs>
<filter id="filter0_d_101_1258" x="0" y="0" width="440" height="157.51" filterUnits="userSpaceOnUse" color-interpolation-filters="sRGB">
<feFlood flood-opacity="0" result="BackgroundImageFix"/>
<feColorMatrix in="SourceAlpha" type="matrix" values="0 0 0 0 0 0 0 0 0 0 0 0 0 0 0 0 0 0 127 0" result="hardAlpha"/>
<feOffset dy="30"/>
<feGaussianBlur stdDeviation="10"/>
<feComposite in2="hardAlpha" operator="out"/>
<feColorMatrix type="matrix" values="0 0 0 0 0 0 0 0 0 0 0 0 0 0 0 0 0 0 0.1 0"/>
<feBlend mode="normal" in2="BackgroundImageFix" result="effect1_dropShadow_101_1258"/>
<feBlend mode="normal" in="SourceGraphic" in2="effect1_dropShadow_101_1258" result="shape"/>
</filter>
<clipPath id="clip0_101_1258">
<rect width="400" height="107.51" fill="white" transform="translate(20)"/>
</clipPath>
</defs>
</svg>
