<svg width="108" height="28" viewBox="0 0 108 28" fill="currentColor" xmlns="http://www.w3.org/2000/svg">
<path fill-rule="evenodd" clip-rule="evenodd" d="M0 24.5L0.583475 21.4191L21.7854 3.5H24.8434L20.8364 24.5H16.8294L19.4726 10.6322L3.05094 24.5H0ZM53.6939 24.5H49.6868L53.6939 3.50711H57.7008L53.6939 24.5ZM78.5372 24.5H57.7008L61.7077 3.50711H82.5441L78.5372 24.5ZM62.467 20.5337H75.2753L77.7709 7.47339H64.9626L62.467 20.5337ZM89.0538 3.50711H86.5511L82.5442 24.5H86.5511L89.2998 10.1081L100.878 24.5H103.381L103.873 21.929L89.0538 3.50711ZM103.381 3.50711L101.602 12.8208L104.836 16.8579L107.388 3.50711H103.381ZM28.8504 3.50711H49.6867L49.0962 6.59514L32.5973 20.5337H46.439L45.6798 24.5H24.8434L25.4338 21.4049L41.9329 7.47339H28.0912L28.8504 3.50711Z"/>
</svg>
