<svg width="88" height="20" viewBox="0 0 88 20" fill="currentColor" xmlns="http://www.w3.org/2000/svg">
<path fill-rule="evenodd" clip-rule="evenodd" d="M20.3714 3.62139V0C20.3714 0 23.2528 2.43191 23.8046 5.71916L20.0232 7.02747C19.8997 9.31349 18.8714 15.4844 18.5772 16.0445C18.2643 16.641 16.603 18.3458 15.3029 19.0011C15.3029 19.0011 14.8323 18.5034 14.5452 18.0646C14.1805 18.494 12.2969 20 12.0392 20C11.7815 20 9.89789 18.494 9.53316 18.0646C9.24608 18.5034 8.77547 19.0011 8.77547 19.0011C7.47539 18.3458 5.81413 16.641 5.50117 16.0445C5.20704 15.4844 4.17874 9.31349 4.0552 7.02747L0.273804 5.71916C0.823248 2.43191 3.70459 0 3.70459 0V3.62139L5.41528 4.06259L6.48711 2.77193L7.05303 3.88493C8.22014 3.56844 9.82729 3.36255 12.038 3.36255C14.2487 3.36255 15.8559 3.56727 17.023 3.88493L17.5889 2.77193L18.6608 4.06259L20.3714 3.62139ZM15.8076 11.2124L18.3666 10.9842H18.3678L18.8055 7.44985L14.564 8.91817L14.8935 13.3173C14.1052 13.5173 13.2769 13.7161 12.038 13.7161C10.7991 13.7161 9.96966 13.5173 9.18137 13.3173L9.51081 8.91817L5.26939 7.44985L5.70706 10.9842L8.26603 11.2124L8.04131 14.3503C8.04131 14.3503 9.59787 15.6386 12.0368 15.6386C14.4758 15.6386 16.0324 14.3503 16.0324 14.3503L15.8076 11.2124ZM32.0815 6.26385L28.426 5.81442V3.19661H39.0067V5.81442L35.3712 6.26385V16.8045H32.0815V6.26385ZM47.9895 11.3571C47.9895 12.8913 47.2413 13.9725 45.6847 13.9725C44.1281 13.9725 43.3399 12.9113 43.3399 11.3771V3.19661H40.0503V11.3771C40.0503 14.7785 41.8033 17.0598 45.6459 17.0598C49.4885 17.0598 51.2803 14.6408 51.2803 11.3571V3.19661H47.9907V11.3571H47.9895ZM57.5842 3.19661C60.4397 3.19661 61.8786 4.672 61.8786 7.24744H61.8798C61.8798 8.76165 61.2491 9.92172 60.1456 10.59L63.2587 16.8033H59.7326L57.0536 11.2183H56.1665V16.8033H52.8957V3.19661H57.5842ZM56.1653 8.54516H57.3077C58.056 8.54516 58.489 8.01454 58.489 7.26744C58.489 6.52034 58.036 6.02855 57.3077 6.02855H56.1653V8.54516ZM69.4237 8.76168L67.7095 8.0934C66.7836 7.73926 66.4683 7.3463 66.4683 6.77568C66.4683 6.20506 66.8424 5.75327 67.5919 5.75327C68.3413 5.75327 68.7931 6.34271 68.7743 7.18864H71.8074C71.9462 4.76968 70.7838 2.94133 67.5719 2.94133C64.9129 2.94133 63.1787 4.5932 63.1787 6.97216C63.1787 8.62402 63.907 9.96057 65.287 10.6688C65.9059 10.9783 66.4845 11.2064 67.0562 11.4318C67.1757 11.479 67.295 11.526 67.4142 11.5736C68.3001 11.9077 68.8519 12.2819 68.8519 13.0478C68.8519 13.8137 68.3001 14.2479 67.5519 14.2479C66.4683 14.2479 66.133 13.4019 66.173 12.5372H63.0598C62.9422 14.5232 63.6505 17.0598 67.5519 17.0598C70.2897 17.0598 72.2404 15.448 72.2404 12.6948C72.2404 10.67 71.1956 9.48996 69.4226 8.76168H69.4237ZM72.951 10.0206C72.951 6.0674 75.8277 2.94133 80.0232 2.94133C84.4764 2.94133 87.2542 5.98975 87.2542 9.96175C87.2542 13.9337 84.574 17.0598 80.122 17.0598C75.67 17.0598 72.951 13.9737 72.951 10.0206ZM76.3983 10.0006C76.3983 12.2431 77.836 13.9926 80.102 13.9926C82.5057 13.9926 83.8058 12.2231 83.8058 10.0006C83.8058 7.77809 82.4845 6.00857 80.082 6.00857C77.6795 6.00857 76.3983 7.75809 76.3983 10.0006Z" />
</svg>
