<svg width="107" height="28" viewBox="0 0 107 28" fill="currentColor" xmlns="http://www.w3.org/2000/svg">
<path d="M105.877 2.87469H103.456C102.764 2.87469 102.348 3.28599 102.348 3.96547V11.0206C102.348 13.6103 100.93 15.076 98.9574 15.076C96.8821 15.076 95.7058 13.7473 95.7058 11.1915V3.96475C95.7058 3.28361 95.2878 2.87397 94.5979 2.87397H92.1769C91.4853 2.87397 91.069 3.28527 91.069 3.96475V11.5312C91.069 16.337 93.5958 19.0628 97.4014 19.0628C99.6842 19.0628 101.449 18.3132 102.694 16.7792L102.903 17.734C103.042 18.3512 103.457 18.6881 104.114 18.6881H105.878C106.571 18.6881 106.986 18.2761 106.986 17.5973V3.96547C106.984 3.28432 106.569 2.87469 105.877 2.87469ZM88.9935 14.5309H84.6347C83.1126 14.5309 82.3162 13.7473 82.3162 12.2473V3.96475C82.3162 3.28361 81.8982 2.87397 81.209 2.87397H78.7181C78.0265 2.87397 77.6117 3.28527 77.6117 3.96475V12.8258C77.6117 16.4723 79.8596 18.691 83.5662 18.691H88.998C89.6896 18.691 90.1059 18.2797 90.1059 17.6002V15.62C90.1014 14.9389 89.6851 14.5299 88.9935 14.5299V14.5309ZM18.4836 3.93123C18.4137 3.22037 18.0331 2.87469 17.34 2.87469H15.5063C14.9188 2.87469 14.504 3.11267 14.1925 3.62501L9.72884 11.0548L5.57756 3.62501C5.30178 3.10982 4.84745 2.87397 4.26283 2.87397H2.29239C1.59936 2.87397 1.21873 3.22037 1.14883 3.93123L0.0081306 17.5638C-0.0617666 18.3148 0.321955 18.6888 1.04542 18.6888H3.26049C3.95209 18.6888 4.36767 18.3484 4.40191 17.6323L4.88667 9.99731L7.55014 14.7308C7.82759 15.2453 8.28192 15.4819 8.86487 15.4819H10.3876C10.9758 15.4819 11.3907 15.2753 11.7014 14.7308L14.7129 9.65234L15.0579 17.6278C15.0929 18.3484 15.4759 18.6843 16.1658 18.6843H18.5528C19.2836 18.6843 19.66 18.3103 19.5901 17.56L18.4836 3.93123ZM74.3926 2.87469H72.4906C71.8325 2.87469 71.3827 3.21514 71.28 3.86371L71.1759 4.64732C70.1037 3.52302 68.5452 2.5 65.9507 2.5C61.5912 2.5 58.3738 5.87433 58.3738 10.7476C58.3738 15.5192 61.3829 19.0637 65.6735 19.0637C68.3726 19.0637 70.1372 17.9387 71.2101 16.7802L71.3834 17.735C71.4876 18.3522 71.9062 18.6891 72.5598 18.6891H74.3935C75.0859 18.6891 75.5007 18.277 75.5007 17.5983V3.9657C75.4998 3.28433 75.0842 2.87469 74.3926 2.87469ZM66.9607 15.076C64.5031 15.076 62.9468 13.4059 62.9468 10.8154C62.9468 8.19211 64.5723 6.48771 66.9607 6.48771C69.4166 6.48771 70.9729 8.15787 70.9729 10.7484C70.9679 13.3716 69.3424 15.076 66.9607 15.076ZM55.6064 2.87469H53.7044C53.0464 2.87469 52.5965 3.21514 52.4924 3.86371L52.3883 4.64732C51.316 3.52302 49.7598 2.5 47.1648 2.5C42.8059 2.5 39.5916 5.66987 39.5916 10.5432C39.5916 15.1785 42.5665 18.4504 46.8564 18.4504C49.5206 18.4504 51.1125 17.3596 52.1848 16.201V16.9847C52.1848 19.7106 50.6278 21.4498 47.3419 21.4498C45.9939 21.4498 44.6613 21.1695 43.4314 20.6267C42.7748 20.3181 42.2551 20.4557 41.9443 21.1027L41.1828 22.6031C40.869 23.2203 40.9739 23.7281 41.5635 24.0685C43.3972 25.0901 45.6456 25.5 47.825 25.5C53.2568 25.5 56.7167 22.1257 56.7167 17.4219V3.96547C56.7136 3.28432 56.2987 2.87469 55.6064 2.87469ZM48.1685 14.5644C45.7808 14.5644 44.1554 12.997 44.1554 10.5767C44.1554 8.02093 45.85 6.487 48.1685 6.487C50.5555 6.487 52.1807 7.88494 52.1807 10.5097C52.1807 12.86 50.487 14.5644 48.1685 14.5644ZM36.8202 2.87469H34.9173C34.2592 2.87469 33.8101 3.21514 33.7053 3.86371L33.6011 4.64732C32.5296 3.52302 30.9733 2.5 28.3783 2.5C24.0188 2.5 20.8014 5.87433 20.8014 10.7476C20.8014 15.5192 23.8112 19.0637 28.1018 19.0637C30.7995 19.0637 32.5641 17.9387 33.6377 16.7802L33.8118 17.735C33.9159 18.3522 34.3339 18.6891 34.9881 18.6891H36.8209C37.5139 18.6891 37.9288 18.277 37.9288 17.5983V3.9657C37.9274 3.28433 37.5123 2.87469 36.8202 2.87469ZM29.3814 15.076C26.9255 15.076 25.3675 13.4059 25.3675 10.8154C25.3675 8.19211 26.9937 6.48771 29.3814 6.48771C31.8382 6.48771 33.3945 8.15787 33.3945 10.7484C33.3945 13.3716 31.7691 15.076 29.3814 15.076Z" />
</svg>
