<svg fill="none" height="40" viewBox="0 0 166 40" width="166" xmlns="http://www.w3.org/2000/svg"><circle cx="20" cy="20" fill="#19ccda" r="20"/><path d="m12.9092 11.3252c.944 0 1.8066.1302 2.5879.3906.7812.2604 1.4404.5615 1.9775.9033v3.3448c-.5859-.3581-1.2126-.6918-1.8799-1.001-.6673-.3093-1.4241-.4639-2.2705-.4639-.4232 0-.8463.0651-1.2695.1953-.4069.1302-.7487.3256-1.0254.586-.2604.2604-.3906.594-.3906 1.0009 0 .5372.236.9441.708 1.2208.472.2766 1.0498.5533 1.7334.83l2.0019.8301c1.1394.4883 1.9776 1.0824 2.5147 1.7822.5371.6999.8056 1.4974.8056 2.3926 0 .9766-.2848 1.8392-.8544 2.5879-.5534.7324-1.3021 1.3102-2.2461 1.7334-.9278.4232-1.9613.6348-3.1006.6348-.9603 0-1.8799-.1628-2.75882-.4883-.8789-.3255-1.64388-.7243-2.29492-1.1963v-3.3447c.71615.5208 1.50553.9603 2.36816 1.3183.86268.3581 1.78228.5371 2.75878.5371.6836 0 1.2695-.1302 1.7578-.3906.4883-.2767.7324-.6836.7324-1.2207 0-.4232-.2034-.765-.6103-1.0254-.3906-.2767-.8219-.5045-1.2939-.6836l-2.5147-.9765c-1.26953-.4883-2.13216-1.1231-2.58789-1.9043-.43945-.7976-.65918-1.6765-.65918-2.6368 0-.9928.26856-1.8554.80567-2.5878.55338-.7487 1.26953-1.3265 2.1484-1.7334.8789-.4232 1.8311-.6348 2.8565-.6348zm17.7002 13.623v3.0518h-8.9112v-3.0518h2.7588v-10.2539h-2.7588v-3.0517h8.9112v3.0517h-2.7588v10.2539z" fill="#fff"/><path d="m49.9092 11.3252c.944 0 1.8066.1302 2.5879.3906.7812.2604 1.4404.5615 1.9775.9033v3.3448c-.5859-.3581-1.2126-.6918-1.8799-1.001-.6673-.3093-1.4241-.4639-2.2705-.4639-.4232 0-.8463.0651-1.2695.1953-.4069.1302-.7487.3256-1.0254.586-.2604.2604-.3906.594-.3906 1.0009 0 .5372.236.9441.708 1.2208.472.2766 1.0498.5533 1.7334.83l2.0019.8301c1.1394.4883 1.9776 1.0824 2.5147 1.7822.5371.6999.8056 1.4974.8056 2.3926 0 .9766-.2848 1.8392-.8544 2.5879-.5534.7324-1.3021 1.3102-2.2461 1.7334-.9278.4232-1.9613.6348-3.1006.6348-.9603 0-1.8799-.1628-2.7588-.4883s-1.6439-.7243-2.2949-1.1963v-3.3447c.7161.5208 1.5055.9603 2.3681 1.3183.8627.3581 1.7823.5371 2.7588.5371.6836 0 1.2695-.1302 1.7578-.3906.4883-.2767.7324-.6836.7324-1.2207 0-.4232-.2034-.765-.6103-1.0254-.3906-.2767-.8219-.5045-1.2939-.6836l-2.5147-.9765c-1.2695-.4883-2.1322-1.1231-2.5879-1.9043-.4394-.7976-.6592-1.6765-.6592-2.6368 0-.9928.2686-1.8554.8057-2.5878.5534-.7487 1.2695-1.3265 2.1484-1.7334.8789-.4232 1.8311-.6348 2.8565-.6348zm13.2568 4.0283c.6673 0 1.3428.1546 2.0264.4639.6836.3092 1.2532.7243 1.709 1.2451v-1.3916h3.1006v12.3291h-3.1006v-2.0752c-.3581.6673-.8789 1.2451-1.5625 1.7334-.6836.472-1.4812.708-2.3926.708-.9928 0-1.9124-.2523-2.7588-.7568-.8301-.5046-1.4974-1.237-2.002-2.1973-.5045-.9603-.7568-2.124-.7568-3.4912s.2523-2.5391.7568-3.5156c.5209-.9766 1.2126-1.7253 2.0752-2.2461.8789-.5371 1.8474-.8057 2.9053-.8057zm.6348 3.0274c-.6511 0-1.2126.1709-1.6846.5127-.4557.3255-.8138.7568-1.0742 1.2939s-.3906 1.1149-.3906 1.7334c0 .9277.2767 1.7171.83 2.3682.5697.651 1.3184.9765 2.2461.9765.5534 0 1.0661-.1465 1.5381-.4394.4883-.293.8789-.6999 1.1719-1.2207.3092-.5371.4639-1.18.4639-1.9287v-1.7579c-.4395-.472-.9196-.8463-1.4405-1.123-.5045-.2767-1.0579-.415-1.6601-.415zm14.8926-3.0274c.6673 0 1.3427.1546 2.0263.4639.6836.3092 1.2533.7243 1.709 1.2451v-1.3916h3.1006v12.3291h-3.1006v-2.0752c-.3581.6673-.8789 1.2451-1.5625 1.7334-.6836.472-1.4811.708-2.3926.708-.9928 0-1.9124-.2523-2.7588-.7568-.83-.5046-1.4974-1.237-2.0019-2.1973-.5046-.9603-.7568-2.124-.7568-3.4912s.2522-2.5391.7568-3.5156c.5208-.9766 1.2126-1.7253 2.0752-2.2461.8789-.5371 1.8473-.8057 2.9053-.8057zm.6347 3.0274c-.651 0-1.2125.1709-1.6845.5127-.4558.3255-.8138.7568-1.0743 1.2939-.2604.5371-.3906 1.1149-.3906 1.7334 0 .9277.2767 1.7171.8301 2.3682.5697.651 1.3183.9765 2.2461.9765.5534 0 1.0661-.1465 1.5381-.4394.4882-.293.8789-.6999 1.1718-1.2207.3093-.5371.4639-1.18.4639-1.9287v-1.7579c-.4394-.472-.9196-.8463-1.4404-1.123-.5046-.2767-1.058-.415-1.6602-.415zm15.0147-7.0557c.944 0 1.8066.1302 2.5879.3906.7812.2604 1.4404.5615 1.9775.9033v3.3448c-.5859-.3581-1.2126-.6918-1.8799-1.001-.6673-.3093-1.4241-.4639-2.2705-.4639-.4232 0-.8463.0651-1.2695.1953-.4069.1302-.7487.3256-1.0254.586-.2604.2604-.3906.594-.3906 1.0009 0 .5372.236.9441.708 1.2208.472.2766 1.0498.5533 1.7334.83l2.0019.8301c1.1393.4883 1.9776 1.0824 2.5147 1.7822.5371.6999.8056 1.4974.8056 2.3926 0 .9766-.2848 1.8392-.8545 2.5879-.5533.7324-1.302 1.3102-2.246 1.7334-.9278.4232-1.9613.6348-3.1006.6348-.9603 0-1.8799-.1628-2.7588-.4883s-1.6439-.7243-2.2949-1.1963v-3.3447c.7161.5208 1.5055.9603 2.3681 1.3183.8626.3581 1.7822.5371 2.7588.5371.6836 0 1.2695-.1302 1.7578-.3906.4883-.2767.7324-.6836.7324-1.2207 0-.4232-.2034-.765-.6103-1.0254-.3906-.2767-.8219-.5045-1.294-.6836l-2.5146-.9765c-1.2695-.4883-2.1322-1.1231-2.5879-1.9043-.4394-.7976-.6592-1.6765-.6592-2.6368 0-.9928.2686-1.8554.8057-2.5878.5534-.7487 1.2695-1.3265 2.1484-1.7334.8789-.4232 1.8311-.6348 2.8565-.6348zm17.7002 13.623v3.0518h-8.911v-3.0518h2.759v-10.2539h-2.759v-3.0517h8.911v3.0517h-2.759v10.2539zm7.324-9.2773v1.7578c.375-.5045.879-.9766 1.514-1.416.651-.4395 1.391-.6592 2.222-.6592 1.253 0 2.303.4232 3.149 1.2695.846.8464 1.269 2.1159 1.269 3.8086v7.5684h-3.1l-.025-7.1533c0-.8301-.203-1.4486-.61-1.8555-.39-.4069-.936-.6103-1.636-.6103-.553 0-1.074.179-1.562.5371-.472.358-.879.7812-1.221 1.2695v7.8125h-3.1v-12.3291zm15.821-3.5889v3.5889h3.417v2.5879h-3.417v5.3223c0 .5533.122.9928.366 1.3183.26.3093.643.4639 1.147.4639.44 0 .814-.0488 1.123-.1465.326-.0977.627-.236.904-.415v2.4658c-.31.3092-.7.5696-1.172.7812-.456.2116-1.034.3174-1.734.3174-1.107 0-2.01-.3499-2.71-1.0498-.683-.7161-1.025-1.6927-1.025-2.9297v-6.1279h-2.222v-1.5869c.781-.2767 1.498-.7976 2.149-1.5625.667-.765 1.196-1.7741 1.587-3.0274zm14.477 7.0557c-.521-.293-1.066-.4395-1.636-.4395-.716 0-1.31.236-1.782.708-.472.4558-.887 1.0254-1.245 1.709v6.8848h-3.101v-12.3291h3.101v2.3193c.423-.7324.92-1.3427 1.489-1.831.586-.4883 1.245-.7324 1.978-.7324.439 0 .838.0732 1.196.2197zm8.13-3.7842c1.204 0 2.303.293 3.296.8789.993.5697 1.79 1.3509 2.392 2.3438.619.9765.928 2.0752.928 3.2959s-.309 2.3193-.928 3.2959c-.602.9765-1.399 1.7578-2.392 2.3437-.993.5697-2.092.8545-3.296.8545-1.188 0-2.287-.2848-3.296-.8545-.993-.5859-1.79-1.3672-2.393-2.3437-.602-.9766-.903-2.0752-.903-3.2959s.301-2.3194.903-3.2959c.603-.9929 1.4-1.7741 2.393-2.3438 1.009-.5859 2.108-.8789 3.296-.8789zm0 3.0029c-.586 0-1.131.1384-1.636.4151-.504.2767-.911.6754-1.221 1.1963-.292.5208-.439 1.1556-.439 1.9043s.147 1.3834.439 1.9043c.31.5208.717.9196 1.221 1.1963.505.2604 1.05.3906 1.636.3906s1.131-.1302 1.636-.3906c.504-.2767.911-.6755 1.22-1.1963.31-.5209.464-1.1556.464-1.9043s-.154-1.3835-.464-1.9043c-.309-.5209-.716-.9196-1.22-1.1963-.505-.2767-1.05-.4151-1.636-.4151z" fill="#00bccb"/></svg>