<svg width="659" height="606" viewBox="0 0 659 606" fill="none" xmlns="http://www.w3.org/2000/svg">
<path fill-rule="evenodd" clip-rule="evenodd" d="M230.441 596.923C267.077 595.923 305.443 606.866 339.092 592.342C372.783 577.8 383.771 531.749 417.085 516.364C476.139 489.09 555.847 513.104 604.397 469.814C648.15 430.802 664.579 361.554 655.689 303.613C646.772 245.498 586.776 210.465 556.84 159.862C527.228 109.804 526.198 40.1792 479.41 5.63135C432.658 -28.89 365.314 -7.25189 309.341 -22.8893C249.403 -39.6347 195.745 -111.296 137.286 -89.9494C74.9203 -67.1755 82.8764 32.949 33.8423 77.7133C-8.16856 116.066 -106.908 90.3887 -120.703 145.575C-136.975 210.666 -21.8893 254.35 -27.0356 321.246C-31.9651 385.325 -172.147 411.95 -145.701 470.524C-117.307 533.415 -6.07349 475.318 56.0693 505.313C90.1791 521.778 85.5864 580.732 119.116 598.348C152.332 615.799 192.934 597.948 230.441 596.923Z" fill="url(#paint0_linear_121_485)" fill-opacity="0.4"/>
<defs>
<linearGradient id="paint0_linear_121_485" x1="658.019" y1="256.04" x2="-149.019" y2="256.04" gradientUnits="userSpaceOnUse">
<stop stop-color="#F3652B"/>
<stop offset="1" stop-color="#F3652B" stop-opacity="0"/>
</linearGradient>
</defs>
</svg>
