<svg width="600" height="421" viewBox="0 0 600 421" fill="none" xmlns="http://www.w3.org/2000/svg">
<g clip-path="url(#clip0)">
<path d="M490.063 263.849H103.627C100.99 263.846 98.4605 262.797 96.5952 260.932C94.7299 259.066 93.6807 256.537 93.6777 253.899V15.6156C93.6799 13.6831 94.4485 11.8303 95.8151 10.4637C97.1816 9.09712 99.0344 8.3284 100.967 8.32617H492.597C494.563 8.32841 496.448 9.1104 497.838 10.5006C499.228 11.8908 500.01 13.7757 500.013 15.7417V253.899C500.01 256.537 498.96 259.066 497.095 260.932C495.23 262.797 492.701 263.846 490.063 263.849V263.849Z" fill="#F2F2F2"/>
<path d="M475.966 249.758H115.819C110.539 249.758 106.244 245.736 106.244 240.792V33.2919C106.244 29.6256 109.427 26.6426 113.339 26.6426H478.328C482.305 26.6426 485.541 29.6747 485.541 33.4015V240.792C485.541 245.736 481.245 249.758 475.966 249.758Z" fill="white"/>
<path d="M499.875 15.0453H93.5391V9.97978C93.5429 7.33308 94.5964 4.79597 96.4685 2.92505C98.3406 1.05413 100.878 0.00218662 103.525 0H489.889C492.536 0.00217387 495.073 1.05411 496.946 2.92504C498.818 4.79596 499.871 7.33308 499.875 9.97978V15.0453Z" fill="#CCCCCC"/>
<path d="M111.686 10.121C113.113 10.121 114.269 8.96458 114.269 7.53804C114.269 6.11151 113.113 4.95508 111.686 4.95508C110.26 4.95508 109.104 6.11151 109.104 7.53804C109.104 8.96458 110.26 10.121 111.686 10.121Z" fill="white"/>
<path d="M121.491 10.121C122.918 10.121 124.074 8.96458 124.074 7.53804C124.074 6.11151 122.918 4.95508 121.491 4.95508C120.065 4.95508 118.908 6.11151 118.908 7.53804C118.908 8.96458 120.065 10.121 121.491 10.121Z" fill="white"/>
<path d="M131.296 10.121C132.722 10.121 133.879 8.96458 133.879 7.53804C133.879 6.11151 132.722 4.95508 131.296 4.95508C129.869 4.95508 128.713 6.11151 128.713 7.53804C128.713 8.96458 129.869 10.121 131.296 10.121Z" fill="white"/>
<path d="M436.325 214.956H157.227C154.429 214.953 151.747 213.84 149.768 211.861C147.79 209.883 146.677 207.201 146.674 204.403V69.8378C146.676 67.7454 147.508 65.7393 148.988 64.2597C150.468 62.78 152.474 61.9477 154.566 61.9453H438.86C440.985 61.9478 443.024 62.7933 444.527 64.2966C446.03 65.7998 446.876 67.8379 446.878 69.9638V204.403C446.875 207.201 445.762 209.883 443.784 211.861C441.805 213.84 439.123 214.953 436.325 214.956V214.956ZM154.566 63.1513C152.793 63.1534 151.094 63.8585 149.84 65.112C148.587 66.3655 147.882 68.0651 147.88 69.8378V204.403C147.883 206.881 148.868 209.257 150.621 211.009C152.373 212.761 154.749 213.747 157.227 213.75H436.325C438.803 213.747 441.179 212.761 442.931 211.009C444.683 209.257 445.669 206.881 445.672 204.403V69.9638C445.67 68.1577 444.952 66.4261 443.674 65.1489C442.397 63.8718 440.666 63.1534 438.86 63.1513H154.566Z" fill="#CCCCCC"/>
<path d="M166.875 204.403H426.677C429.236 204.403 431.69 203.386 433.499 201.577C435.309 199.768 436.325 197.314 436.325 194.755V82.2635C436.325 79.7046 435.309 77.2505 433.499 75.4411C431.69 73.6317 429.236 72.6152 426.677 72.6152H166.875C164.316 72.6152 161.862 73.6317 160.052 75.4411C158.243 77.2505 157.227 79.7046 157.227 82.2635V194.755C157.227 197.314 158.243 199.768 160.052 201.577C161.862 203.386 164.316 204.403 166.875 204.403Z" fill="#F2F2F2"/>
<path d="M196.374 105.345C199.372 105.345 201.802 102.915 201.802 99.9174C201.802 96.92 199.372 94.4902 196.374 94.4902C193.377 94.4902 190.947 96.92 190.947 99.9174C190.947 102.915 193.377 105.345 196.374 105.345Z" fill="#CCCCCC"/>
<path d="M196.374 125.846C199.372 125.846 201.802 123.417 201.802 120.419C201.802 117.422 199.372 114.992 196.374 114.992C193.377 114.992 190.947 117.422 190.947 120.419C190.947 123.417 193.377 125.846 196.374 125.846Z" fill="#CCCCCC"/>
<path d="M196.374 146.348C199.372 146.348 201.802 143.919 201.802 140.921C201.802 137.924 199.372 135.494 196.374 135.494C193.377 135.494 190.947 137.924 190.947 140.921C190.947 143.919 193.377 146.348 196.374 146.348Z" fill="#CCCCCC"/>
<path d="M196.374 166.85C199.372 166.85 201.802 164.421 201.802 161.423C201.802 158.426 199.372 155.996 196.374 155.996C193.377 155.996 190.947 158.426 190.947 161.423C190.947 164.421 193.377 166.85 196.374 166.85Z" fill="#CCCCCC"/>
<path d="M402.002 100.52H223.509C223.349 100.52 223.196 100.457 223.083 100.344C222.97 100.231 222.906 100.077 222.906 99.9175C222.906 99.7575 222.97 99.6042 223.083 99.4911C223.196 99.378 223.349 99.3145 223.509 99.3145H402.002C402.162 99.3145 402.315 99.378 402.428 99.4911C402.541 99.6042 402.605 99.7575 402.605 99.9175C402.605 100.077 402.541 100.231 402.428 100.344C402.315 100.457 402.162 100.52 402.002 100.52Z" fill="#CCCCCC"/>
<path d="M402.002 121.022H223.509C223.349 121.022 223.196 120.959 223.083 120.846C222.97 120.733 222.906 120.579 222.906 120.419C222.906 120.259 222.97 120.106 223.083 119.993C223.196 119.88 223.349 119.816 223.509 119.816H402.002C402.162 119.816 402.315 119.88 402.428 119.993C402.541 120.106 402.605 120.259 402.605 120.419C402.605 120.579 402.541 120.733 402.428 120.846C402.315 120.959 402.162 121.022 402.002 121.022Z" fill="#CCCCCC"/>
<path d="M402.002 141.524H223.509C223.349 141.524 223.196 141.461 223.083 141.348C222.97 141.235 222.906 141.081 222.906 140.921C222.906 140.761 222.97 140.608 223.083 140.495C223.196 140.382 223.349 140.318 223.509 140.318H402.002C402.162 140.318 402.315 140.382 402.428 140.495C402.541 140.608 402.605 140.761 402.605 140.921C402.605 141.081 402.541 141.235 402.428 141.348C402.315 141.461 402.162 141.524 402.002 141.524Z" fill="#CCCCCC"/>
<path d="M402.002 162.026H223.509C223.349 162.026 223.196 161.963 223.083 161.85C222.97 161.737 222.906 161.583 222.906 161.423C222.906 161.263 222.97 161.11 223.083 160.997C223.196 160.884 223.349 160.82 223.509 160.82H402.002C402.162 160.82 402.315 160.884 402.428 160.997C402.541 161.11 402.605 161.263 402.605 161.423C402.605 161.583 402.541 161.737 402.428 161.85C402.315 161.963 402.162 162.026 402.002 162.026Z" fill="#CCCCCC"/>
<path d="M257.278 182.53H239.79C238.991 182.529 238.225 182.211 237.66 181.646C237.094 181.081 236.776 180.315 236.775 179.515V163.234C236.776 162.434 237.094 161.668 237.66 161.103C238.225 160.538 238.991 160.22 239.79 160.219H257.278C258.077 160.22 258.844 160.538 259.409 161.103C259.974 161.668 260.292 162.434 260.293 163.234V179.515C260.292 180.315 259.974 181.081 259.409 181.646C258.844 182.211 258.077 182.529 257.278 182.53V182.53Z" fill="#37C2CC"/>
<path d="M296.475 182.529H278.988C278.188 182.528 277.422 182.21 276.857 181.645C276.292 181.08 275.974 180.313 275.973 179.514V142.73C275.974 141.931 276.292 141.164 276.857 140.599C277.422 140.034 278.188 139.716 278.988 139.715H296.475C297.275 139.716 298.041 140.034 298.606 140.599C299.171 141.164 299.489 141.931 299.49 142.73V179.514C299.489 180.313 299.171 181.08 298.606 181.645C298.041 182.21 297.275 182.528 296.475 182.529V182.529Z" fill="#37C2CC"/>
<path d="M336.274 182.529H318.787C317.987 182.529 317.221 182.211 316.656 181.645C316.09 181.08 315.772 180.314 315.771 179.514V122.228C315.772 121.429 316.09 120.662 316.656 120.097C317.221 119.532 317.987 119.214 318.787 119.213H336.274C337.073 119.214 337.84 119.532 338.405 120.097C338.97 120.662 339.288 121.429 339.289 122.228V179.514C339.288 180.314 338.97 181.08 338.405 181.645C337.84 182.211 337.073 182.529 336.274 182.529V182.529Z" fill="#37C2CC"/>
<path d="M377.278 182.531H359.79C358.991 182.53 358.225 182.212 357.659 181.646C357.094 181.081 356.776 180.315 356.775 179.515V102.33C356.776 101.53 357.094 100.764 357.659 100.199C358.225 99.6333 358.991 99.3154 359.79 99.3145H377.278C378.077 99.3154 378.844 99.6333 379.409 100.199C379.974 100.764 380.292 101.53 380.293 102.33V179.515C380.292 180.315 379.974 181.081 379.409 181.646C378.844 182.212 378.077 182.53 377.278 182.531V182.531Z" fill="#37C2CC"/>
<path d="M402.002 182.53H223.509C223.349 182.53 223.196 182.467 223.083 182.354C222.97 182.241 222.906 182.087 222.906 181.927C222.906 181.767 222.97 181.614 223.083 181.501C223.196 181.388 223.349 181.324 223.509 181.324H402.002C402.162 181.324 402.315 181.388 402.428 181.501C402.541 181.614 402.605 181.767 402.605 181.927C402.605 182.087 402.541 182.241 402.428 182.354C402.315 182.467 402.162 182.53 402.002 182.53Z" fill="#3F3D56"/>
<path d="M480.422 295.02C480.911 294.28 481.556 293.657 482.312 293.193C483.067 292.73 483.915 292.438 484.796 292.337C485.677 292.237 486.569 292.331 487.409 292.613C488.25 292.895 489.018 293.358 489.661 293.969L508.81 284.086L507.619 295.22L489.617 302.898C488.519 303.909 487.089 304.482 485.597 304.509C484.104 304.536 482.654 304.014 481.521 303.043C480.387 302.072 479.649 300.719 479.447 299.24C479.245 297.761 479.592 296.26 480.422 295.02Z" fill="#FFB8B8"/>
<path d="M496.9 299.172C496.465 298.831 496.144 298.366 495.981 297.839L494.458 292.919C494.294 292.385 494.298 291.815 494.469 291.284C494.64 290.753 494.97 290.288 495.415 289.951L510.935 278.228L527.744 247.045C528.448 246.138 529.324 245.379 530.321 244.81C531.319 244.242 532.418 243.876 533.557 243.732C534.696 243.589 535.852 243.672 536.96 243.975C538.067 244.278 539.103 244.797 540.01 245.501C540.917 246.205 541.676 247.081 542.244 248.079C542.812 249.076 543.179 250.176 543.322 251.315C543.465 252.454 543.383 253.61 543.079 254.717C542.776 255.824 542.257 256.861 541.553 257.767L531.99 277.951C529.088 284.077 524.061 288.94 517.841 291.637L499.653 299.526C499.303 299.677 498.925 299.754 498.544 299.75C498.163 299.745 497.787 299.661 497.44 299.502C497.248 299.414 497.066 299.303 496.9 299.172V299.172Z" fill="#3F3D56"/>
<path d="M541.975 234.032C550.154 234.032 556.785 227.401 556.785 219.221C556.785 211.041 550.154 204.41 541.975 204.41C533.795 204.41 527.164 211.041 527.164 219.221C527.164 227.401 533.795 234.032 541.975 234.032Z" fill="#FFB8B8"/>
<path d="M535.967 413.51L528.575 413.51L525.059 384.994L535.97 384.995L535.967 413.51Z" fill="#FFB8B8"/>
<path d="M523.293 411.396H537.551V420.373H514.316C514.316 419.195 514.549 418.027 515 416.938C515.451 415.849 516.112 414.859 516.946 414.026C517.779 413.192 518.769 412.531 519.858 412.08C520.947 411.629 522.115 411.396 523.293 411.396Z" fill="#2F2E41"/>
<path d="M560.088 413.511L552.696 413.51L549.18 384.994L560.091 384.995L560.088 413.511Z" fill="#FFB8B8"/>
<path d="M547.414 411.398H561.672V420.375H538.438C538.437 419.197 538.67 418.029 539.121 416.94C539.572 415.851 540.233 414.861 541.067 414.028C541.9 413.194 542.89 412.533 543.979 412.082C545.068 411.631 546.236 411.398 547.414 411.398V411.398Z" fill="#2F2E41"/>
<path d="M560.628 406.274L551.965 406.274C551.368 406.273 550.789 406.076 550.315 405.713C549.842 405.35 549.501 404.842 549.345 404.266L536.875 358.014C536.855 357.942 536.81 357.88 536.747 357.839C536.684 357.799 536.609 357.783 536.535 357.795C536.461 357.807 536.395 357.846 536.348 357.905C536.302 357.963 536.278 358.036 536.283 358.111L538.802 401.976C538.824 402.363 538.763 402.752 538.622 403.114C538.481 403.476 538.265 403.804 537.986 404.075C537.708 404.346 537.375 404.554 537.009 404.685C536.644 404.816 536.254 404.867 535.867 404.835L526.13 404.023C525.506 403.97 524.919 403.703 524.47 403.267C524.02 402.832 523.734 402.255 523.66 401.633L514.789 309.525L518.221 311.585L550.379 306.125L563.318 403.202C563.369 403.585 563.338 403.975 563.226 404.345C563.114 404.715 562.925 405.057 562.67 405.348C562.415 405.639 562.101 405.872 561.749 406.032C561.397 406.192 561.015 406.274 560.628 406.274H560.628Z" fill="#2F2E41"/>
<path d="M525.544 319.248C521.996 319.219 518.521 318.241 515.479 316.415C515.01 316.137 514.637 315.724 514.407 315.231C514.177 314.737 514.102 314.185 514.191 313.648C515.322 306.721 521.236 271.191 526.618 251.821C528.81 243.932 533.656 239.683 541.022 239.192C551.797 238.485 561.374 246.915 562.371 258.006C564.13 277.573 556.984 305.373 553.83 316.417C553.708 316.844 553.483 317.234 553.174 317.553C552.866 317.872 552.485 318.111 552.063 318.248C551.641 318.386 551.191 318.417 550.754 318.34C550.317 318.264 549.906 318.081 549.556 317.808L543.127 312.807C542.731 312.505 542.242 312.35 541.745 312.371C541.247 312.392 540.773 312.586 540.404 312.92C534.985 317.754 529.837 319.248 525.544 319.248Z" fill="#3F3D56"/>
<path opacity="0.2" d="M546.806 267.58L552.233 290.495L544.393 309.791L549.821 291.098L546.806 267.58Z" fill="black"/>
<path d="M550.426 231.4C551.744 231.424 553.053 231.187 554.278 230.703C554.817 230.495 555.377 230.324 555.915 230.116C560.668 228.28 563.799 223.219 563.912 218.125C564.024 213.031 561.386 208.087 557.469 204.828C553.552 201.57 548.479 199.897 543.398 199.51C537.926 199.093 531.763 200.48 528.705 205.038C527.891 206.251 527.322 207.723 527.804 209.187C527.949 209.629 528.207 210.026 528.552 210.337C529.918 211.552 531.279 210.638 532.672 210.558C534.585 210.447 536.304 211.996 536.921 213.81C537.539 215.625 537.267 217.622 536.768 219.473C536.388 220.587 536.148 221.743 536.055 222.916C536.015 223.504 536.125 224.093 536.376 224.626C536.627 225.16 537.01 225.62 537.489 225.964C538.685 226.687 540.255 226.269 541.451 225.547C542.648 224.826 543.682 223.822 544.974 223.292C546.266 222.761 548.003 222.878 548.755 224.056C548.994 224.484 549.156 224.952 549.233 225.436C549.907 228.508 549.752 228.327 550.426 231.4V231.4Z" fill="#2F2E41"/>
<path d="M527.469 392.823L434.728 360.525C433.137 359.969 431.831 358.804 431.097 357.287C430.364 355.769 430.262 354.022 430.815 352.429L454.915 283.228C455.322 282.063 456.175 281.106 457.287 280.568C458.399 280.031 459.679 279.956 460.846 280.361L556.722 313.751C557.908 314.166 558.881 315.034 559.428 316.165C559.975 317.296 560.051 318.598 559.639 319.785L535.565 388.91C535.009 390.501 533.844 391.807 532.327 392.541C530.809 393.274 529.062 393.376 527.469 392.823V392.823Z" fill="#E6E6E6"/>
<path d="M442.642 356.548L523.738 384.79C525.282 385.328 526.977 385.23 528.449 384.518C529.921 383.807 531.05 382.539 531.588 380.995L551.049 325.116C551.586 323.571 551.489 321.877 550.777 320.404C550.065 318.932 548.798 317.803 547.254 317.265L466.158 289.023C464.614 288.485 462.919 288.583 461.447 289.294C459.974 290.006 458.845 291.273 458.307 292.818L438.847 348.697C438.581 349.462 438.468 350.271 438.514 351.08C438.561 351.888 438.766 352.679 439.118 353.408C439.471 354.137 439.963 354.79 440.568 355.328C441.172 355.867 441.877 356.281 442.642 356.548Z" fill="white"/>
<path d="M463.008 317.288L458.992 315.889C458.774 315.813 458.595 315.654 458.495 315.446C458.395 315.238 458.381 314.999 458.456 314.781L459.855 310.765C459.931 310.547 460.09 310.369 460.298 310.268C460.506 310.168 460.745 310.154 460.963 310.23L464.979 311.628C465.197 311.705 465.375 311.864 465.476 312.072C465.576 312.279 465.59 312.518 465.514 312.736L464.116 316.752C464.04 316.97 463.88 317.149 463.673 317.249C463.465 317.349 463.226 317.363 463.008 317.288V317.288Z" fill="#37C2CC"/>
<path d="M459.383 327.694L455.367 326.295C455.149 326.219 454.97 326.06 454.87 325.852C454.77 325.645 454.756 325.406 454.831 325.188L456.23 321.171C456.306 320.954 456.465 320.775 456.673 320.675C456.881 320.574 457.12 320.56 457.338 320.636L461.354 322.035C461.572 322.111 461.75 322.27 461.851 322.478C461.951 322.685 461.965 322.924 461.889 323.142L460.491 327.159C460.414 327.376 460.255 327.555 460.047 327.655C459.84 327.756 459.601 327.77 459.383 327.694V327.694Z" fill="#3F3D56"/>
<path d="M455.76 338.1L451.744 336.702C451.526 336.625 451.347 336.466 451.247 336.258C451.147 336.051 451.133 335.812 451.208 335.594L452.607 331.578C452.683 331.36 452.842 331.181 453.05 331.081C453.258 330.981 453.497 330.967 453.715 331.042L457.731 332.441C457.949 332.517 458.127 332.676 458.228 332.884C458.328 333.092 458.342 333.331 458.266 333.549L456.868 337.565C456.791 337.783 456.632 337.961 456.424 338.062C456.217 338.162 455.978 338.176 455.76 338.1V338.1Z" fill="#CCCCCC"/>
<path d="M489.996 324.435L470.645 317.696C470.536 317.659 470.437 317.6 470.351 317.524C470.266 317.449 470.196 317.356 470.146 317.253C470.096 317.15 470.067 317.039 470.06 316.924C470.053 316.81 470.069 316.696 470.107 316.588C470.145 316.48 470.203 316.38 470.279 316.295C470.356 316.209 470.448 316.14 470.551 316.09C470.654 316.04 470.766 316.012 470.88 316.005C470.994 315.999 471.109 316.015 471.217 316.053L490.568 322.792C490.676 322.83 490.776 322.888 490.861 322.964C490.947 323.04 491.017 323.132 491.066 323.235C491.116 323.338 491.146 323.45 491.152 323.564C491.159 323.678 491.143 323.793 491.105 323.901C491.068 324.009 491.009 324.108 490.933 324.194C490.857 324.279 490.764 324.349 490.661 324.398C490.558 324.448 490.446 324.477 490.332 324.483C490.218 324.489 490.104 324.473 489.996 324.435V324.435Z" fill="#CCCCCC"/>
<path d="M486.37 334.841L467.019 328.102C466.801 328.026 466.623 327.866 466.522 327.659C466.422 327.451 466.408 327.212 466.484 326.994C466.56 326.776 466.719 326.597 466.927 326.497C467.135 326.396 467.374 326.383 467.592 326.459L486.943 333.198C487.051 333.235 487.15 333.293 487.236 333.369C487.321 333.445 487.391 333.537 487.441 333.64C487.491 333.743 487.52 333.855 487.527 333.969C487.533 334.083 487.517 334.198 487.48 334.306C487.442 334.414 487.383 334.513 487.307 334.599C487.231 334.684 487.139 334.754 487.036 334.803C486.933 334.853 486.821 334.882 486.707 334.888C486.593 334.895 486.478 334.879 486.37 334.841V334.841Z" fill="#CCCCCC"/>
<path d="M482.747 345.247L463.396 338.508C463.178 338.432 463 338.273 462.899 338.065C462.799 337.857 462.785 337.618 462.861 337.4C462.937 337.182 463.096 337.004 463.304 336.903C463.512 336.803 463.751 336.789 463.969 336.865L483.319 343.604C483.537 343.68 483.716 343.839 483.817 344.047C483.917 344.255 483.931 344.494 483.855 344.712C483.779 344.929 483.62 345.108 483.412 345.209C483.204 345.309 482.965 345.323 482.747 345.247V345.247Z" fill="#CCCCCC"/>
<path d="M534.244 350.884C534.385 350.546 534.518 350.202 534.64 349.852C536.231 345.285 535.942 340.273 533.837 335.919C531.732 331.565 527.984 328.225 523.417 326.635L517.057 344.898L534.244 350.884Z" fill="#37C2CC"/>
<path d="M515.206 346.009L521.566 327.745C518.205 326.574 514.574 326.413 511.122 327.281C507.67 328.149 504.548 330.008 502.14 332.629C499.732 335.25 498.144 338.519 497.571 342.032C496.999 345.545 497.467 349.149 498.918 352.399C500.369 355.649 502.74 358.403 505.738 360.322C508.736 362.241 512.23 363.241 515.789 363.198C519.348 363.155 522.816 362.071 525.767 360.08C528.718 358.09 531.021 355.279 532.393 351.994L515.206 346.009Z" fill="#3F3D56"/>
<path d="M537.977 319.811C537.905 318.928 538.028 318.039 538.336 317.208C538.645 316.377 539.132 315.624 539.763 315.001C540.394 314.379 541.154 313.903 541.99 313.606C542.825 313.309 543.715 313.199 544.598 313.283L553.567 293.689L559.501 303.186L550.074 320.336C549.834 321.809 549.062 323.143 547.904 324.085C546.747 325.027 545.284 325.511 543.792 325.447C542.301 325.382 540.886 324.773 539.814 323.734C538.742 322.695 538.089 321.3 537.977 319.811V319.811Z" fill="#FFB8B8"/>
<path d="M553.504 312.911C552.952 312.911 552.413 312.743 551.958 312.429L547.723 309.497C547.266 309.178 546.917 308.727 546.724 308.204C546.531 307.681 546.504 307.111 546.645 306.571L551.623 287.769L545.606 252.859C545.599 251.71 545.818 250.571 546.252 249.507C546.685 248.443 547.324 247.475 548.132 246.659C548.94 245.842 549.901 245.192 550.96 244.747C552.019 244.302 553.156 244.07 554.305 244.065C555.454 244.059 556.592 244.28 557.656 244.715C558.719 245.15 559.686 245.79 560.502 246.599C561.318 247.408 561.966 248.369 562.41 249.429C562.854 250.489 563.084 251.625 563.089 252.774L568.019 274.557C569.517 281.168 568.562 288.098 565.332 294.058L555.889 311.49C555.707 311.825 555.457 312.118 555.154 312.35C554.852 312.582 554.504 312.748 554.133 312.837C553.927 312.886 553.716 312.911 553.504 312.911V312.911Z" fill="#3F3D56"/>
<path d="M599.397 420.712H484.824C484.664 420.712 484.51 420.648 484.397 420.535C484.284 420.422 484.221 420.269 484.221 420.109C484.221 419.949 484.284 419.796 484.397 419.682C484.51 419.569 484.664 419.506 484.824 419.506H599.397C599.556 419.506 599.71 419.569 599.823 419.682C599.936 419.796 600 419.949 600 420.109C600 420.269 599.936 420.422 599.823 420.535C599.71 420.648 599.556 420.712 599.397 420.712Z" fill="#CCCCCC"/>
<path d="M295.804 413.209L303.197 413.208L306.714 384.693H295.803L295.804 413.209Z" fill="#A0616A"/>
<path d="M293.918 410.796L308.477 410.795H308.478C309.696 410.795 310.903 411.035 312.028 411.501C313.154 411.967 314.177 412.651 315.038 413.512C315.9 414.374 316.583 415.397 317.05 416.522C317.516 417.648 317.756 418.855 317.756 420.073V420.375L293.918 420.375L293.918 410.796Z" fill="#2F2E41"/>
<path d="M266.255 413.209L273.648 413.208L277.165 384.693H266.254L266.255 413.209Z" fill="#A0616A"/>
<path d="M264.369 410.796L278.928 410.795H278.929C280.147 410.795 281.354 411.035 282.479 411.501C283.605 411.967 284.628 412.651 285.49 413.512C286.351 414.374 287.035 415.397 287.501 416.522C287.967 417.648 288.207 418.855 288.207 420.073V420.375L264.37 420.375L264.369 410.796Z" fill="#2F2E41"/>
<path d="M297.279 215.793C305.459 215.793 312.09 209.162 312.09 200.983C312.09 192.803 305.459 186.172 297.279 186.172C289.1 186.172 282.469 192.803 282.469 200.983C282.469 209.162 289.1 215.793 297.279 215.793Z" fill="#A0616A"/>
<path d="M307.239 407.056H293.52C293.16 407.056 292.805 406.985 292.474 406.846C292.142 406.708 291.842 406.505 291.589 406.249C291.337 405.994 291.138 405.691 291.003 405.358C290.869 405.025 290.802 404.669 290.806 404.309L291.603 339.165C291.606 338.934 291.52 338.71 291.363 338.54C291.206 338.37 290.99 338.267 290.759 338.251C290.529 338.236 290.3 338.309 290.122 338.457C289.944 338.604 289.829 338.815 289.801 339.044L281.817 404.67C281.736 405.328 281.418 405.934 280.922 406.373C280.425 406.813 279.786 407.056 279.123 407.056H265.272C264.898 407.056 264.528 406.979 264.185 406.829C263.842 406.679 263.534 406.46 263.28 406.185C263.026 405.91 262.831 405.586 262.709 405.233C262.586 404.879 262.538 404.504 262.567 404.131L271.713 287.101L271.962 287.074L315.758 282.344L309.949 404.471C309.917 405.168 309.617 405.826 309.112 406.307C308.607 406.789 307.936 407.057 307.239 407.056V407.056Z" fill="#2F2E41"/>
<path d="M272.246 294.284C271.542 294.283 270.867 294.008 270.362 293.517C269.858 293.027 269.564 292.359 269.542 291.656C269.303 284.256 268.893 258.652 273.656 239.854C274.955 234.719 277.873 230.138 281.977 226.789C286.081 223.44 291.154 221.501 296.445 221.258V221.258C301.654 220.973 306.819 222.336 311.209 225.153C315.599 227.97 318.991 232.097 320.903 236.95C328.908 257.274 336.471 282.325 327.042 286.254C314.683 291.403 282.103 293.698 272.412 294.279C272.356 294.283 272.301 294.284 272.246 294.284Z" fill="#3F3D56"/>
<path d="M328.852 186.013C329.085 186.252 329.336 186.473 329.604 186.672L328.049 216.537L321.582 219.848L325.303 230.261L337.321 225.512C338.292 225.129 339.112 224.44 339.659 223.551C340.205 222.661 340.448 221.619 340.352 220.579L337.203 186.702C338.233 185.933 339.005 184.869 339.416 183.651C339.827 182.433 339.857 181.119 339.503 179.883C339.148 178.648 338.426 177.549 337.432 176.734C336.438 175.919 335.22 175.426 333.938 175.32C332.657 175.215 331.375 175.501 330.26 176.143C329.146 176.784 328.254 177.749 327.702 178.91C327.15 180.071 326.964 181.372 327.169 182.641C327.375 183.91 327.962 185.086 328.852 186.013V186.013Z" fill="#A0616A"/>
<path d="M328.172 217.651L332.722 230.579C332.851 230.947 332.9 231.338 332.864 231.726C332.829 232.115 332.71 232.491 332.516 232.829C332.322 233.167 332.057 233.46 331.74 233.687C331.423 233.913 331.061 234.069 330.678 234.143L317.264 236.741C315.378 237.393 313.311 237.27 311.515 236.4C309.72 235.53 308.342 233.983 307.686 232.099C307.029 230.215 307.146 228.147 308.011 226.35C308.877 224.552 310.42 223.171 312.302 222.509L324.347 216.151C324.692 215.969 325.072 215.864 325.461 215.842C325.85 215.82 326.24 215.883 326.603 216.025C326.966 216.167 327.294 216.386 327.565 216.667C327.836 216.947 328.043 217.283 328.172 217.651V217.651Z" fill="#3F3D56"/>
<path d="M264.7 186.013C264.467 186.252 264.216 186.473 263.948 186.672L265.503 216.537L271.97 219.848L268.249 230.261L256.231 225.512C255.26 225.129 254.44 224.44 253.893 223.551C253.347 222.661 253.104 221.619 253.2 220.579L256.349 186.702C255.319 185.933 254.547 184.869 254.136 183.651C253.725 182.433 253.695 181.119 254.05 179.883C254.404 178.648 255.126 177.549 256.12 176.734C257.114 175.919 258.333 175.426 259.614 175.32C260.895 175.215 262.177 175.501 263.292 176.143C264.406 176.784 265.298 177.749 265.85 178.91C266.402 180.071 266.588 181.372 266.383 182.641C266.177 183.91 265.59 185.086 264.7 186.013H264.7Z" fill="#A0616A"/>
<path d="M266.951 216.023C267.314 215.881 267.703 215.818 268.092 215.84C268.482 215.862 268.862 215.968 269.207 216.15L281.251 222.507C283.133 223.169 284.676 224.55 285.542 226.348C286.407 228.146 286.524 230.213 285.868 232.097C285.211 233.981 283.834 235.528 282.038 236.398C280.243 237.269 278.175 237.391 276.29 236.739L262.875 234.142C262.492 234.068 262.13 233.912 261.813 233.685C261.496 233.458 261.231 233.166 261.037 232.827C260.843 232.489 260.724 232.113 260.689 231.725C260.654 231.336 260.702 230.945 260.832 230.577L265.381 217.649C265.51 217.281 265.717 216.945 265.988 216.665C266.259 216.384 266.587 216.165 266.951 216.023V216.023Z" fill="#3F3D56"/>
<path d="M303.032 203.508C302.955 201.618 303.429 199.747 304.397 198.123C305.365 196.499 306.785 195.192 308.484 194.361C312.986 192.037 315.814 187.08 314.575 182.553C312.989 176.759 305.102 173.001 298.712 174.994C296.983 175.608 295.315 176.384 293.731 177.31L289.556 179.547C287.773 180.44 286.054 181.455 284.41 182.585C281.949 184.399 280.02 186.841 278.824 189.655C277.629 192.469 277.211 195.553 277.614 198.583C278.436 204.474 282.294 209.876 287.574 213.575C289.594 215.084 291.926 216.121 294.4 216.609C296.931 217.026 299.749 216.552 301.599 214.978C304.492 212.518 304.193 208.398 303.257 204.958C303.134 204.483 303.058 203.997 303.032 203.508Z" fill="#2F2E41"/>
<path d="M353.367 420.712H238.794C238.634 420.712 238.481 420.648 238.368 420.535C238.255 420.422 238.191 420.269 238.191 420.109C238.191 419.949 238.255 419.796 238.368 419.682C238.481 419.569 238.634 419.506 238.794 419.506H353.367C353.527 419.506 353.681 419.569 353.794 419.682C353.907 419.796 353.97 419.949 353.97 420.109C353.97 420.269 353.907 420.422 353.794 420.535C353.681 420.648 353.527 420.712 353.367 420.712Z" fill="#CCCCCC"/>
<path d="M166.378 310.706L71.8394 349.49C70.2158 350.154 68.3951 350.147 66.7768 349.47C65.1585 348.793 63.8748 347.502 63.2072 345.88L34.2673 275.338C33.7809 274.148 33.7861 272.814 34.2819 271.629C34.7777 270.443 35.7235 269.503 36.9119 269.014L134.647 228.918C135.857 228.423 137.214 228.429 138.42 228.933C139.626 229.437 140.583 230.4 141.08 231.609L169.988 302.074C170.652 303.697 170.645 305.518 169.968 307.136C169.292 308.754 168.001 310.038 166.378 310.706V310.706Z" fill="#E6E6E6"/>
<path d="M75.2624 340.933L157.93 307.019C159.504 306.373 160.758 305.128 161.414 303.559C162.071 301.989 162.077 300.222 161.431 298.648L138.062 241.686C137.742 240.906 137.272 240.197 136.678 239.6C136.085 239.002 135.379 238.527 134.602 238.202C133.824 237.877 132.991 237.708 132.148 237.705C131.306 237.702 130.471 237.865 129.691 238.185L47.0236 272.099C46.2441 272.419 45.5353 272.889 44.9375 273.483C44.3397 274.077 43.8647 274.782 43.5397 275.56C43.2146 276.337 43.0459 277.171 43.043 278.013C43.0401 278.856 43.2033 279.691 43.523 280.47L66.8918 337.433C67.2115 338.212 67.6817 338.921 68.2754 339.519C68.8692 340.116 69.5748 340.591 70.3521 340.916C71.1294 341.242 71.9631 341.41 72.8056 341.413C73.6481 341.416 74.483 341.253 75.2624 340.933V340.933Z" fill="white"/>
<path d="M137.606 257.22L136.391 257.719L136.474 257.921L137.689 257.423L137.606 257.22Z" fill="#E6E6E6"/>
<path d="M134.019 258.929L131.563 259.936L131.48 259.734L133.936 258.727L134.019 258.929ZM129.108 260.944L126.653 261.951L126.57 261.748L129.025 260.741L129.108 260.944ZM124.197 262.958L121.742 263.966L121.659 263.763L124.114 262.756L124.197 262.958ZM119.287 264.973L116.831 265.98L116.748 265.778L119.204 264.77L119.287 264.973ZM114.376 266.987L111.921 267.995L111.838 267.792L114.293 266.785L114.376 266.987ZM109.465 269.002L107.01 270.009L106.927 269.807L109.382 268.799L109.465 269.002ZM104.555 271.017L102.099 272.024L102.016 271.821L104.472 270.814L104.555 271.017ZM99.6441 273.031L97.1888 274.039L97.1056 273.836L99.561 272.829L99.6441 273.031ZM94.7334 275.046L92.2781 276.053L92.195 275.851L94.6503 274.843L94.7334 275.046ZM89.8227 277.06L87.3674 278.068L87.2843 277.865L89.7396 276.858L89.8227 277.06ZM84.9121 279.075L82.4568 280.082L82.3737 279.88L84.829 278.872L84.9121 279.075ZM80.0014 281.09L77.5461 282.097L77.463 281.894L79.9183 280.887L80.0014 281.09ZM75.0907 283.104L72.6354 284.111L72.5523 283.909L75.0077 282.902L75.0907 283.104ZM70.1801 285.119L67.7247 286.126L67.6416 285.923L70.097 284.916L70.1801 285.119ZM65.2694 287.133L62.8141 288.141L62.731 287.938L65.1863 286.931L65.2694 287.133ZM60.3588 289.148L57.9034 290.155L57.8203 289.953L60.2757 288.945L60.3588 289.148Z" fill="#E6E6E6"/>
<path d="M55.3638 290.96L54.1484 291.459L54.2315 291.662L55.4469 291.163L55.3638 290.96Z" fill="#E6E6E6"/>
<path d="M105.43 292.431L104.215 292.93L104.298 293.132L105.513 292.634L105.43 292.431Z" fill="#E6E6E6"/>
<path d="M101.878 294.124L99.4589 295.117L99.3758 294.914L101.795 293.922L101.878 294.124ZM97.04 296.109L94.6212 297.101L94.5381 296.899L96.9569 295.907L97.04 296.109ZM92.2023 298.094L89.7834 299.086L89.7003 298.883L92.1192 297.891L92.2023 298.094ZM87.3646 300.078L84.9457 301.071L84.8626 300.868L87.2815 299.876L87.3646 300.078ZM82.5269 302.063L80.108 303.055L80.0249 302.853L82.4438 301.861L82.5269 302.063ZM77.6891 304.048L75.2702 305.04L75.1871 304.838L77.606 303.845L77.6891 304.048ZM72.8514 306.032L70.4325 307.025L70.3494 306.822L72.7683 305.83L72.8514 306.032ZM68.0137 308.017L65.5948 309.009L65.5117 308.807L67.9306 307.815L68.0137 308.017Z" fill="#E6E6E6"/>
<path d="M63.0923 309.798L61.877 310.297L61.9601 310.499L63.1754 310.001L63.0923 309.798Z" fill="#E6E6E6"/>
<path d="M85.3853 311.066L84.1699 311.564L84.253 311.767L85.4684 311.268L85.3853 311.066Z" fill="#E6E6E6"/>
<path d="M81.7646 312.789L79.276 313.809L79.1929 313.607L81.6815 312.586L81.7646 312.789ZM76.7873 314.83L74.2987 315.851L74.2156 315.649L76.7042 314.628L76.7873 314.83ZM71.81 316.872L69.3214 317.893L69.2383 317.691L71.7269 316.67L71.81 316.872Z" fill="#E6E6E6"/>
<path d="M66.7486 318.712L65.5332 319.211L65.6163 319.414L66.8317 318.915L66.7486 318.712Z" fill="#E6E6E6"/>
<path d="M91.6255 326.277L90.4102 326.775L90.4933 326.978L91.7086 326.479L91.6255 326.277Z" fill="#E6E6E6"/>
<path d="M88.0049 327.999L85.5162 329.02L85.4331 328.818L87.9218 327.797L88.0049 327.999ZM83.0275 330.041L80.5389 331.062L80.4558 330.86L82.9445 329.839L83.0275 330.041ZM78.0503 332.083L75.5616 333.104L75.4785 332.902L77.9672 331.881L78.0503 332.083Z" fill="#E6E6E6"/>
<path d="M72.9888 333.921L71.7734 334.42L71.8565 334.622L73.0719 334.124L72.9888 333.921Z" fill="#E6E6E6"/>
<path d="M78.7734 331.968L148.829 303.228C150.524 302.53 151.874 301.188 152.581 299.497C153.288 297.805 153.296 295.902 152.602 294.205L138.448 259.703L138.311 259.764L121.119 300.87L108.369 295.539C108.133 295.44 107.878 295.397 107.624 295.412C107.369 295.428 107.121 295.503 106.9 295.631C106.568 295.831 106.311 296.134 106.169 296.495L97.1593 318.035L87.8368 314.138C87.6356 314.054 87.4198 314.011 87.2018 314.01C86.9837 314.009 86.7676 314.051 86.5659 314.134C86.3641 314.217 86.1807 314.338 86.026 314.492C85.8713 314.646 85.7484 314.829 85.6643 315.03C85.6046 315.176 79.8565 329.279 78.7734 331.968Z" fill="#37C2CC"/>
<path d="M78.5574 332.291L78.3555 332.207L85.5643 314.968C85.7551 314.513 86.1187 314.153 86.5751 313.965C87.0316 313.778 87.5438 313.78 87.9992 313.97L97.1376 317.791L106.096 296.369C106.287 295.914 106.65 295.553 107.107 295.366C107.563 295.179 108.076 295.18 108.531 295.37L121.097 300.625L138.377 259.305L138.579 259.389L121.215 300.912L108.447 295.572C108.248 295.489 108.034 295.446 107.819 295.445C107.603 295.444 107.389 295.486 107.19 295.568C106.99 295.65 106.809 295.77 106.656 295.922C106.503 296.074 106.381 296.255 106.298 296.454L97.2551 318.078L87.9147 314.172C87.5129 314.004 87.061 314.003 86.6583 314.168C86.2555 314.333 85.9347 314.652 85.7662 315.053L78.5574 332.291Z" fill="#3F3D56"/>
<path d="M85.4272 312.7C86.2736 312.7 86.9598 312.014 86.9598 311.167C86.9598 310.321 86.2736 309.635 85.4272 309.635C84.5807 309.635 83.8945 310.321 83.8945 311.167C83.8945 312.014 84.5807 312.7 85.4272 312.7Z" fill="#3F3D56"/>
<path d="M105.47 294.063C106.317 294.063 107.003 293.377 107.003 292.531C107.003 291.684 106.317 290.998 105.47 290.998C104.624 290.998 103.938 291.684 103.938 292.531C103.938 293.377 104.624 294.063 105.47 294.063Z" fill="#3F3D56"/>
<path d="M136.681 258.802C137.528 258.802 138.214 258.115 138.214 257.269C138.214 256.423 137.528 255.736 136.681 255.736C135.835 255.736 135.148 256.423 135.148 257.269C135.148 258.115 135.835 258.802 136.681 258.802Z" fill="#3F3D56"/>
<path d="M50.8962 309.428C51.6929 309.031 52.3931 308.465 52.9472 307.769C53.5014 307.072 53.8962 306.263 54.1037 305.397C54.3113 304.532 54.3265 303.632 54.1485 302.76C53.9704 301.888 53.6033 301.065 53.073 300.351L57.625 255.846H47.7878L44.1703 299.303C43.0286 300.273 42.2826 301.628 42.0736 303.112C41.8645 304.596 42.2069 306.105 43.036 307.353C43.8651 308.601 45.1231 309.501 46.5718 309.884C48.0205 310.266 49.5592 310.104 50.8962 309.428Z" fill="#FFB8B8"/>
<path d="M59.9274 231.284C67.6139 231.284 73.845 225.053 73.845 217.367C73.845 209.68 67.6139 203.449 59.9274 203.449C52.2409 203.449 46.0098 209.68 46.0098 217.367C46.0098 225.053 52.2409 231.284 59.9274 231.284Z" fill="#FFB8B8"/>
<path d="M62.548 281.764C61.9908 281.764 61.4492 281.581 61.006 281.243C60.5629 280.905 60.2428 280.432 60.0949 279.895C58.9798 275.843 56.0787 268.994 51.4725 259.535C50.4331 257.397 49.8575 255.063 49.7836 252.687C49.7096 250.31 50.1388 247.945 51.0432 245.747C51.9475 243.548 53.3065 241.565 55.031 239.929C56.7555 238.292 58.8065 237.039 61.0494 236.251C63.175 235.5 65.4295 235.184 67.6795 235.32C69.9296 235.456 72.1295 236.042 74.1491 237.043C76.1688 238.044 77.9671 239.44 79.4376 241.149C80.9082 242.857 82.0212 244.843 82.7108 246.989C86.2812 258.183 86.1088 270.173 85.8689 274.809C85.8391 275.367 85.6272 275.9 85.2655 276.326C84.9038 276.752 84.4123 277.048 83.8664 277.169L63.0948 281.705C62.9152 281.744 62.7318 281.764 62.548 281.764Z" fill="#FF6584"/>
<path d="M82.6633 413.925H89.6101L92.9152 387.129L82.6621 387.13L82.6633 413.925Z" fill="#FFB8B8"/>
<path d="M103.008 420.375L81.1742 420.376L81.1738 411.94L94.5717 411.94C95.6795 411.94 96.7765 412.158 97.7999 412.582C98.8234 413.005 99.7534 413.627 100.537 414.41C101.32 415.193 101.942 416.123 102.366 417.147C102.79 418.17 103.008 419.267 103.008 420.375Z" fill="#2F2E41"/>
<path d="M13.1953 404.921L19.2834 408.268L35.0896 386.379L26.1053 381.439L13.1953 404.921Z" fill="#FFB8B8"/>
<path d="M27.916 420.375L8.78324 409.856L12.8473 402.464L24.5879 408.919C26.5484 409.997 28.0005 411.809 28.6246 413.958C29.2488 416.106 28.9939 418.414 27.916 420.375V420.375V420.375Z" fill="#2F2E41"/>
<path d="M82.3374 399.051C81.7183 399.051 81.1206 398.825 80.6558 398.416C80.1909 398.007 79.8907 397.443 79.8111 396.829L71.123 329.88C71.0846 329.584 70.9536 329.307 70.7487 329.09C70.5438 328.873 70.2755 328.726 69.9822 328.67C69.6888 328.615 69.3853 328.653 69.1151 328.78C68.8449 328.907 68.6217 329.116 68.4775 329.378L32.2691 395.071C31.9703 395.607 31.489 396.018 30.9126 396.23C30.3362 396.441 29.7031 396.439 29.1283 396.223L21.2359 393.216C20.9184 393.095 20.6284 392.912 20.3827 392.678C20.137 392.443 19.9407 392.162 19.8052 391.85C19.6698 391.539 19.5979 391.203 19.5939 390.864C19.5899 390.524 19.6538 390.187 19.7819 389.872L44.8644 328.256C44.928 328.099 44.971 327.935 44.9925 327.768C48.3898 301.473 57.0337 288.101 59.6019 284.629C59.7895 284.374 59.9129 284.078 59.9618 283.765C60.0107 283.452 59.9837 283.132 59.8829 282.831L59.5298 281.772C59.3888 281.352 59.3599 280.902 59.446 280.467C59.532 280.032 59.7301 279.627 60.0206 279.292C69.2748 268.751 85.4045 274.503 85.5664 274.562L85.6472 274.592L85.6978 274.661C103.784 299.465 97.0969 380.028 95.5728 395.926C95.5159 396.523 95.2495 397.081 94.8208 397.501C94.3921 397.921 93.8287 398.176 93.2302 398.22L82.5354 399.044C82.4689 399.049 82.403 399.051 82.3374 399.051Z" fill="#2F2E41"/>
<path d="M114.034 233.535C113.964 233.841 113.919 234.152 113.898 234.465L89.5562 248.507L83.6396 245.101L77.332 253.359L87.2204 260.407C88.0192 260.976 88.9812 261.271 89.9619 261.247C90.9426 261.223 91.889 260.882 92.6592 260.274L117.76 240.472C118.893 240.891 120.126 240.956 121.297 240.657C122.467 240.358 123.519 239.71 124.312 238.799C125.105 237.888 125.602 236.757 125.736 235.556C125.871 234.356 125.637 233.143 125.065 232.079C124.493 231.015 123.611 230.15 122.536 229.599C121.461 229.049 120.244 228.838 119.046 228.996C117.849 229.155 116.728 229.674 115.832 230.484C114.937 231.295 114.31 232.359 114.034 233.535V233.535Z" fill="#FFB8B8"/>
<path d="M88.7416 249.171L80.8743 259.367C80.6505 259.657 80.3667 259.896 80.0424 260.066C79.7181 260.237 79.3608 260.336 78.9949 260.356C78.6291 260.376 78.2632 260.317 77.9222 260.182C77.5811 260.048 77.2731 259.842 77.0189 259.578L68.1126 250.33C66.6348 249.176 65.6747 247.484 65.443 245.623C65.2113 243.763 65.7267 241.886 66.8763 240.405C68.026 238.924 69.7159 237.96 71.5757 237.723C73.4355 237.486 75.3133 237.996 76.7975 239.142L87.9679 245.388C88.2877 245.567 88.5651 245.813 88.7814 246.108C88.9976 246.404 89.1475 246.743 89.221 247.102C89.2944 247.461 89.2896 247.832 89.2069 248.189C89.1241 248.546 88.9654 248.881 88.7416 249.171V249.171Z" fill="#FF6584"/>
<path d="M58.2491 266.887L45.5754 264.598C45.2148 264.533 44.8724 264.391 44.5717 264.182C44.2709 263.972 44.0188 263.701 43.8325 263.385C43.6463 263.07 43.5302 262.718 43.4922 262.353C43.4543 261.989 43.4953 261.62 43.6125 261.273L47.7211 249.109C48.0646 247.265 49.125 245.634 50.6698 244.571C52.2146 243.509 54.1177 243.102 55.9617 243.441C57.8058 243.779 59.4404 244.835 60.507 246.377C61.5736 247.919 61.9853 249.821 61.6517 251.666L61.2508 264.458C61.2392 264.824 61.1488 265.184 60.9858 265.512C60.8227 265.84 60.5909 266.129 60.306 266.36C60.0212 266.59 59.69 266.757 59.335 266.847C58.98 266.938 58.6096 266.952 58.249 266.887H58.2491Z" fill="#FF6584"/>
<path d="M62.1299 214.167C65.7071 216.615 70.4039 219.132 74.0574 216.524C75.2002 215.654 76.0304 214.437 76.4238 213.056C76.8171 211.674 76.7524 210.202 76.2394 208.86C74.49 203.858 69.6835 201.655 65.0873 199.967C59.1123 197.772 52.6063 196.026 46.4381 197.598C40.2698 199.17 34.8185 205.142 35.932 211.409C36.8274 216.449 41.5815 220.643 40.9066 225.717C40.2274 230.824 34.4843 233.512 29.414 234.425C24.3437 235.337 18.67 235.63 15.0262 239.272C10.3779 243.918 11.5387 252.222 15.9125 257.127C20.2864 262.033 26.8869 264.256 33.2827 265.767C41.7567 267.77 50.9221 268.823 58.9703 265.499C67.0185 262.175 73.2815 253.228 70.9501 244.839C69.9653 241.295 67.6454 238.3 65.4034 235.385C63.1613 232.469 60.8911 229.42 60.0358 225.843C59.3231 222.862 59.8506 219.401 61.8275 217.165C62.187 216.773 62.4133 216.278 62.4738 215.75C62.5343 215.222 62.426 214.688 62.1643 214.226L62.1299 214.167Z" fill="#2F2E41"/>
<path d="M115.176 420.712H0.603015C0.443086 420.712 0.289706 420.648 0.176619 420.535C0.0635313 420.422 0 420.269 0 420.109C0 419.949 0.0635313 419.796 0.176619 419.682C0.289706 419.569 0.443086 419.506 0.603015 419.506H115.176C115.336 419.506 115.489 419.569 115.602 419.682C115.715 419.796 115.779 419.949 115.779 420.109C115.779 420.269 115.715 420.422 115.602 420.535C115.489 420.648 115.336 420.712 115.176 420.712Z" fill="#CCCCCC"/>
</g>
<defs>
<clipPath id="clip0">
<rect width="600" height="420.712" fill="white"/>
</clipPath>
</defs>
</svg>
